<?xml version="1.0" standalone="no"?>
<!DOCTYPE svg PUBLIC "-//W3C//DTD SVG 20010904//EN"
 "http://www.w3.org/TR/2001/REC-SVG-20010904/DTD/svg10.dtd">
<svg version="1.0" xmlns="http://www.w3.org/2000/svg"
 width="700.000000pt" height="700.000000pt" viewBox="0 0 700.000000 700.000000"
 preserveAspectRatio="xMidYMid meet">
<metadata>
Created by potrace 1.14, written by Peter Selinger 2001-2017
</metadata>
<g transform="translate(0.000000,700.000000) scale(0.100000,-0.100000)"
fill="#000000" stroke="none">
<path d="M6177 6814 c-1 -1 -71 -4 -156 -8 -84 -4 -156 -8 -160 -10 -3 -2 -37
-7 -74 -11 -37 -3 -76 -8 -86 -10 -10 -2 -42 -6 -72 -10 -30 -4 -56 -8 -59
-10 -3 -2 -27 -6 -54 -9 -27 -4 -52 -9 -55 -11 -3 -1 -24 -6 -46 -9 -100 -16
-367 -81 -530 -129 -274 -82 -548 -184 -815 -304 -57 -26 -362 -178 -405 -203
-209 -118 -508 -301 -525 -320 -3 -3 -43 -32 -90 -65 -408 -282 -833 -670
-1195 -1088 -6 -7 -30 -37 -55 -67 -25 -30 -47 -57 -50 -60 -16 -14 -216 -289
-276 -380 -300 -449 -537 -954 -693 -1475 -74 -249 -144 -550 -176 -765 -4
-25 -9 -52 -10 -61 -2 -9 -6 -40 -10 -69 -4 -29 -8 -61 -10 -71 -2 -10 -7 -53
-10 -96 -4 -43 -9 -86 -10 -95 -3 -15 -9 -84 -21 -258 -4 -65 -4 -556 0 -615
7 -83 17 -188 21 -215 2 -14 7 -46 10 -72 12 -87 19 -102 51 -108 43 -9 3699
-4 3771 4 34 4 67 14 73 21 7 8 12 123 15 326 2 173 6 334 9 359 3 25 9 65 12
90 3 25 8 61 10 80 2 19 9 58 14 86 6 28 13 64 16 80 9 56 65 250 95 329 47
123 141 311 204 405 235 350 624 669 991 810 77 29 248 76 309 84 109 15 191
23 246 25 9 1 20 9 24 19 16 43 19 319 19 1832 0 1425 -4 1852 -18 1925 -2 11
-7 39 -11 62 -4 24 -13 44 -23 49 -14 6 -189 22 -195 18z"/>
</g>
</svg>
